# xmcd
#
# Track frame offsets: 
#        182
#        15765
#        32015
#        44760
#        62782
#        75507
#        91682
#        105260
#        121520
#        138022
#        153592
#        172987
#        187790
#        214995
#        230987
#        246497
#
# Disc length: 3509 seconds
#
# Revision: 2
# Processed by: cddbd v1.5.1PL2 Copyright (c) Steve Scherf et al.
# Submitted via: ExactAudioCopy v0.95b4
#
DISCID=c10db310
DTITLE=Allen Toussaint - Allen Toussaint Collection
DYEAR=1991
DGENRE=R&B
TTITLE0=From A Whisper To A Scream
TTITLE1=What Is Success
TTITLE2=Am I Expecting Too Much
TTITLE3=On Your Way Down
TTITLE4=Soul Sister
TTITLE5=Country John
TTITLE6=Last Train
TTITLE7=Southern Nights
TTITLE8=What Do You Want The Girl To Do
TTITLE9=You Will Not Lose
TTITLE10=Night People
TTITLE11=Lover of Love
TTITLE12=Motion
TTITLE13=Viva la Money
TTITLE14=Happiness
TTITLE15=With You In Mind
EXTD=
EXTT0=
EXTT1=
EXTT2=
EXTT3=
EXTT4=
EXTT5=
EXTT6=
EXTT7=
EXTT8=
EXTT9=
EXTT10=
EXTT11=
EXTT12=
EXTT13=
EXTT14=
EXTT15=
PLAYORDER=
